<svg class="icon" viewBox="0 0 1024 1024" xmlns="http://www.w3.org/2000/svg" width="200" height="200"><defs><style/></defs><path d="M578.656 651.209S512 704.55 487.745 718.527c-21.307 12.275-41.316 20.447-59.14 26.113-17.827 5.662-33.453 9.226-46.874 10.694-13.422 1.468-24.537 2.412-33.344 2.833-.84.417-1.89.63-3.146.63h-10.067c-23.072 0-44.776-2.728-65.12-8.181-20.343-5.453-38.062-13.526-53.165-24.224-15.1-10.694-27.052-24.115-35.86-40.265-8.808-16.147-13.213-34.917-13.213-56.308.42-18.457 5.453-35.233 15.099-50.333 9.647-15.103 22.125-27.894 37.437-38.38 15.308-10.488 32.296-18.457 50.962-23.91 18.662-5.453 37.433-7.757 56.308-6.918 18.457.838 36.281 3.038 53.479 6.604 17.197 3.566 33.66 7.864 49.39 12.896 15.729 5.036 30.619 10.488 44.671 16.358a3347.11 3347.11 0 0139.953 16.99 622.162 622.162 0 0015.73 6.29 767.25 767.25 0 0016.984 6.292c12.166-15.52 22.441-30.725 30.828-45.614 8.39-14.891 15.312-28.521 20.765-40.895 5.452-12.375 9.646-22.756 12.584-31.146 2.937-8.387 4.823-14.26 5.662-17.615H344.61v-30.202h128.977v-69.833h-179.31V310.2H473.59v-56.625c0-3.776 2.095-6.814 6.291-9.12 4.194-2.308 9.017-3.88 14.47-4.719 6.291-1.26 13.423-1.89 21.39-1.89h48.448V310.2H748.53v30.202H564.188v69.833h146.487c.033-.207.073-.418.105-.626v.626h-.105c-2.947 18.691-7.941 38.402-14.994 59.144-5.87 18.036-14.574 38.588-26.11 61.657-11.535 23.068-26.738 46.766-45.613 71.093 0 0 144.395 69.062 296.82 93.395 25.316-56.147 39.408-118.445 39.408-184.034 0-247.526-200.66-448.185-448.186-448.185S63.814 263.967 63.814 511.493 264.474 959.68 512 959.68c153.541 0 289.042-77.214 369.81-194.923-82.091-17.863-169.27-54.07-303.154-113.547z" fill="#1296db"/><path d="M226.327 631.074c-1.683 76.902 85.334 82.616 98.749 83.029 44.343 1.364 80.158-15.385 108.053-31.953 27.89-16.568 73.386-59.358 75.063-60.826s3.355-3.041 5.032-4.719c-12.162-6.712-24.116-12.9-35.86-18.561-11.744-5.662-71.411-37.705-124.367-43.19-100.27-10.386-126.159 52.825-126.67 76.22z" fill="#1296db"/></svg>